# xmcd CD database file
#
# Track frame offsets:
#	150
#	131335
#	195797
#
# Disc length: 3501 seconds
#
# Revision: 0
# Processed by: cddbd v1.5.2PL0 Copyright (c) Steve Scherf et al.
# Submitted via: CDex 1.51
#
DISCID=190dab03
DTITLE=Sonny Rollins - Complete Spnny Rollins In Japan [CD2]
DYEAR=1973
DGENRE=Jazz
TTITLE0=Sais
TTITLE1=God Bless The Child
TTITLE2=Hold 'Em Joe
EXTD=YEAR: 1973
EXTT0=
EXTT1=
EXTT2=
PLAYORDER=
